<svg width="120" height="120" viewBox="0 0 120 120" fill="none" xmlns="http://www.w3.org/2000/svg">
<mask id="mask0_177_19" style="mask-type:alpha" maskUnits="userSpaceOnUse" x="25" y="5" width="69" height="63">
<rect x="25" y="5" width="68.9979" height="62.674" fill="white"/>
</mask>
<g mask="url(#mask0_177_19)">
<path d="M91.2376 42.5979C90.5173 59.9034 77.0939 74.7768 59.6468 74.7768C42.1998 74.7768 27.6445 59.4399 27.6445 42.5979C27.6445 25.7559 42.1998 12.1028 59.6468 12.1028C77.0939 12.1028 91.2376 25.7559 91.2376 42.5979Z" fill="#D6034F"/>
</g>
<mask id="mask1_177_19" style="mask-type:alpha" maskUnits="userSpaceOnUse" x="27" y="12" width="65" height="56">
<mask id="mask2_177_19" style="mask-type:alpha" maskUnits="userSpaceOnUse" x="25" y="5" width="70" height="63">
<rect x="25.0078" y="5" width="68.9979" height="62.674" fill="white"/>
</mask>
<g mask="url(#mask2_177_19)">
<path d="M91.2454 42.5979C90.5251 59.9034 77.1017 74.7768 59.6547 74.7768C42.2076 74.7768 27.6523 59.4399 27.6523 42.5979C27.6523 25.7559 42.2076 12.1028 59.6547 12.1028C77.1017 12.1028 91.2454 25.7559 91.2454 42.5979Z" fill="#BA0626"/>
</g>
</mask>
<g mask="url(#mask1_177_19)">
<mask id="mask3_177_19" style="mask-type:alpha" maskUnits="userSpaceOnUse" x="25" y="29" width="70" height="64">
<rect x="25.0078" y="29.5459" width="68.9979" height="62.674" fill="white"/>
</mask>
<g mask="url(#mask3_177_19)">
<path d="M86.6833 71.0312C86.0464 85.7519 74.5009 98.2509 59.6786 98.2509C44.7767 98.2509 32.3014 85.2601 32.3014 71.0645C32.3014 56.9773 44.6652 45.3837 59.6786 45.3837C74.6528 45.3837 86.6644 56.9332 86.6833 71.0312Z" fill="#556CE9" stroke="white" stroke-width="3.17312"/>
</g>
</g>
<path d="M40.0508 67.6392H79.0701L72.4435 71.0987H46.5787L40.0508 67.6392Z" fill="#556CE9"/>
<path d="M72.4234 71.0989H59.491H46.5586C46.5586 71.0989 53.7433 73.9727 53.7433 78.2835C53.7433 82.5943 51.6131 104.148 52.3316 106.304C53.0501 108.459 57.2025 108.459 59.5162 108.459C61.83 108.459 65.9824 108.459 66.7009 106.304C67.4194 104.148 65.2387 82.5943 65.2387 78.2835C65.2387 73.9727 72.4234 71.0989 72.4234 71.0989Z" fill="#556CE9"/>
</svg>
