<svg width="600" height="600" viewBox="0 0 600 600" fill="none" xmlns="http://www.w3.org/2000/svg">
<path d="M219.297 352.908C217.778 351.527 218.755 349 220.808 349H290.5H362.52C364.085 349 365.078 350.678 364.324 352.049C364.214 352.248 364.073 352.428 363.905 352.58L353.724 361.84L339.606 376.355C329.425 387.039 324.13 401.466 324.983 416.199L326.409 440.835L333.789 522.632C334.367 529.033 332.253 535.384 327.955 540.162C325.136 543.295 321.514 545.598 317.481 546.82L307.766 549.766C296.508 553.178 284.492 553.178 273.234 549.766L262.476 546.504C259.099 545.48 255.977 543.754 253.316 541.438C247.017 535.959 243.867 527.698 244.919 519.416L254.898 440.835L257.398 416.541C258.924 401.702 253.729 386.958 243.236 376.355L229.732 361.84L219.297 352.908Z" fill="#2F445E"/>
<mask id="mask0_36_119" style="mask-type:alpha" maskUnits="userSpaceOnUse" x="111" y="0" width="363" height="330">
<rect x="111" width="363" height="329.73" fill="white"/>
</mask>
<g mask="url(#mask0_36_119)">
<path d="M449.48 197.597C445.781 284.005 378.865 357.099 293.28 357.099C207.205 357.099 134.915 281.082 134.915 197.805C134.915 115.216 206.506 47.3694 293.28 47.3694C379.81 47.3694 449.363 114.938 449.48 197.597Z" fill="#BA0626" stroke="#2F445E" stroke-width="20"/>
<ellipse cx="338.782" cy="157.996" rx="35.9975" ry="32.6982" fill="#FAF0F4"/>
</g>
<line x1="199" y1="325" x2="395" y2="325" stroke="#2F445E" stroke-width="10"/>
</svg>
